<svg xmlns="http://www.w3.org/2000/svg" viewBox="0 0 233 141"><defs><style>.cls-1{fill:none;}.cls-1,.cls-2{stroke:#fff;stroke-linecap:square;stroke-miterlimit:1.38;stroke-width:11.07px;}.cls-2,.cls-3{fill:#fff;}</style></defs><g id="Layer_2" data-name="Layer 2"><rect width="233" height="141"/></g><g id="Layer_1" data-name="Layer 1"><g id="Layer-1"><path class="cls-1" d="M125.79,116.16V27.27" transform="translate(-2 -0.73)"/><path class="cls-2" d="M104.69,27.27v88.89" transform="translate(-2 -0.73)"/><path class="cls-3" d="M160.7,21.73c-1,.2-2.08.36-3.13.52-1.67.25-3.35.46-5,.65-2.43.27-4.87.46-7.31.53-1.42,0-2.84.06-4.26,0-.5,0-1-.05-1.51-.08a29.29,29.29,0,0,1-5.51-.8,14.61,14.61,0,0,1-1.59-.49c-.27-.1-.53-.19-.8-.27a.61.61,0,0,0-.18,0,.47.47,0,0,0-.2.06,1.11,1.11,0,0,0-.19.09,2.91,2.91,0,0,0-.59.34c-.44.31-.9.62-1.35.92a14.17,14.17,0,0,1-1.89,1.08,6.57,6.57,0,0,1-2.12.63,4.49,4.49,0,0,1-1.21-.06c0,2.24,1.47,4.21,2.94,5.77a16,16,0,0,0,1.4,1.33,8.54,8.54,0,0,0,1.59,1.14l.28.14a1.72,1.72,0,0,0,.29.11c.1,0,.2,0,.3,0l.3,0a8.85,8.85,0,0,0,.9-.12c.75-.12,1.5-.27,2.24-.42s1.64-.39,2.45-.6q2.64-.71,5.22-1.63,1.38-.49,2.76-1,2.43-1,4.81-2c2.84-1.28,5.64-2.61,8.39-4.07C158.7,22.84,159.71,22.3,160.7,21.73Z" transform="translate(-2 -0.73)"/><path class="cls-3" d="M69.65,21.73c1,.61,2.14,1.19,3.22,1.76,2.68,1.41,5.4,2.71,8.16,4q2.39,1.08,4.82,2,1.38.52,2.76,1c1.72.62,3.45,1.16,5.21,1.63.82.21,1.63.42,2.45.6s1.69.33,2.54.47a9,9,0,0,0,.91.09,2.64,2.64,0,0,0,.29,0,1.45,1.45,0,0,0,.29-.11l.28-.14.29-.14a7.48,7.48,0,0,0,.8-.59l.75-.62A15.62,15.62,0,0,0,104,30.13a8.48,8.48,0,0,0,2.52-5.31,4.45,4.45,0,0,1-1.21.06,6.69,6.69,0,0,1-2.31-.72,14.47,14.47,0,0,1-1.7-1l-1.54-1.06a2.62,2.62,0,0,0-.58-.29.51.51,0,0,0-.2-.06.67.67,0,0,0-.19,0l-.19.06-.61.21c-.57.2-1.15.38-1.74.53a30.25,30.25,0,0,1-5.35.76c-.51,0-1,.07-1.52.08-1.42,0-2.84,0-4.26,0-2.44-.07-4.88-.26-7.31-.53-1.76-.2-3.51-.42-5.26-.69C71.57,22.06,70.61,21.91,69.65,21.73Z" transform="translate(-2 -0.73)"/><path class="cls-3" d="M130.4,110.13a.86.86,0,0,0-.29.11l-.28.13a2.49,2.49,0,0,0-.28.15,5.1,5.1,0,0,0-.8.58c-.26.2-.51.41-.76.62a16.72,16.72,0,0,0-1.57,1.58,8.56,8.56,0,0,0-2.52,5.31,4.94,4.94,0,0,1,1.21-.06,6.91,6.91,0,0,1,2.31.72,16,16,0,0,1,1.7,1c.52.35,1,.72,1.55,1.06a3.19,3.19,0,0,0,.58.3,1.17,1.17,0,0,0,.2.06.64.64,0,0,0,.18-.06l.19-.06.61-.2a15.22,15.22,0,0,1,1.74-.54,30.36,30.36,0,0,1,5.36-.76c.5,0,1-.07,1.51-.08,1.42,0,2.84,0,4.26,0,2.44.07,4.88.26,7.31.53,1.76.19,3.51.43,5.26.69,1,.15,1.94.3,2.9.48-1.06-.61-2.14-1.19-3.22-1.76-2.68-1.41-5.41-2.71-8.17-4-1.59-.72-3.19-1.4-4.82-2-.91-.36-1.83-.68-2.76-1-1.71-.61-3.45-1.16-5.21-1.63-.81-.22-1.63-.42-2.45-.59s-1.69-.34-2.54-.48c-.3,0-.6-.07-.9-.09A1.51,1.51,0,0,0,130.4,110.13Z" transform="translate(-2 -0.73)"/><path class="cls-3" d="M100.08,110.13a1.51,1.51,0,0,0-.3,0l-.3,0c-.3,0-.6.07-.9.12-.75.12-1.5.27-2.24.43s-1.63.37-2.45.59c-1.76.47-3.49,1-5.21,1.63-.92.34-1.85.66-2.76,1q-2.43,1-4.82,2c-2.83,1.28-5.64,2.62-8.38,4.07-1,.53-2,1.07-3,1.64,1-.19,2.08-.36,3.13-.51,1.67-.25,3.35-.47,5-.66,2.43-.27,4.87-.46,7.31-.53,1.42,0,2.84-.06,4.26,0,.5,0,1,0,1.52.08a30,30,0,0,1,5.5.8,14.66,14.66,0,0,1,1.59.5l.8.26a.6.6,0,0,0,.19.06,1.06,1.06,0,0,0,.19-.06l.2-.1a2.84,2.84,0,0,0,.58-.34l1.35-.92a16.77,16.77,0,0,1,1.89-1.08,6.57,6.57,0,0,1,2.12-.63,4.89,4.89,0,0,1,1.21.06c0-2.23-1.46-4.21-2.94-5.77a17.46,17.46,0,0,0-1.39-1.33,8.17,8.17,0,0,0-1.6-1.14l-.28-.13A.79.79,0,0,0,100.08,110.13Z" transform="translate(-2 -0.73)"/></g></g></svg>