<?xml version="1.0" encoding="utf-8"?>
<!-- Generator: Adobe Illustrator 25.2.1, SVG Export Plug-In . SVG Version: 6.00 Build 0)  -->
<svg version="1.1" xmlns="http://www.w3.org/2000/svg" xmlns:xlink="http://www.w3.org/1999/xlink" x="0px" y="0px"
	 viewBox="0 0 232.4 141.7" style="enable-background:new 0 0 232.4 141.7;" xml:space="preserve">
<style type="text/css">
	.st0{fill:#FFB815;stroke:#FFFFFF;stroke-width:3;stroke-miterlimit:10;}
	.st1{fill:none;stroke:#FFFFFF;stroke-miterlimit:10;}
	.st2{fill:#FFFFFF;stroke:#FFFFFF;stroke-miterlimit:10;}
	.st3{display:none;}
	.st4{display:inline;}
	.st5{fill:none;stroke:#FFFFFF;stroke-width:11.0728;stroke-linecap:square;stroke-miterlimit:1.3841;}
	.st6{fill:#FFFFFF;stroke:#FFFFFF;stroke-width:11.0728;stroke-linecap:square;stroke-miterlimit:1.3841;}
	.st7{fill:#FFFFFF;}
</style>
<g id="Layer_2">
	<rect x="2" y="-142.3" width="233" height="284"/>
	<g>
		<g>
			<g>
				<g>
					<g>
						<path class="st0" d="M88.6,25.6"/>
						<path class="st0" d="M84.3,6.2l4.2,19.4L84.3,6.2z"/>
						<path class="st0" d="M114.2,7.2L84.4,6.5L114.2,7.2z"/>
						<path class="st0" d="M113.9,16.3V7.1V16.3z"/>
					</g>
					<g>
						<path class="st0" d="M149,25.6"/>
						<path class="st0" d="M153.3,6.2L149,25.6L153.3,6.2z"/>
						<path class="st0" d="M123.4,7.2l29.8-0.7L123.4,7.2z"/>
						<path class="st0" d="M123.7,16.3V7.1V16.3z"/>
					</g>
				</g>
				<g>
					<g>
						<path class="st0" d="M88.6,86.7"/>
						<path class="st0" d="M84.4,106.1l4.2-19.4L84.4,106.1z"/>
						<path class="st0" d="M114.2,105.1l-29.8,0.7L114.2,105.1z"/>
						<path class="st0" d="M114,96v9.2V96z"/>
					</g>
					<g>
						<path class="st0" d="M149.1,86.7"/>
						<path class="st0" d="M153.4,106.1l-4.2-19.4L153.4,106.1z"/>
						<path class="st0" d="M123.5,105.1l29.8,0.7L123.5,105.1z"/>
						<path class="st0" d="M123.8,96v9.2V96z"/>
					</g>
				</g>
			</g>
			<g>
				<line class="st1" x1="114.2" y1="27.3" x2="113.9" y2="85.3"/>
				<path class="st0" d="M114.2,27.3"/>
				<line class="st1" x1="114.2" y1="27.3" x2="94.5" y2="27.3"/>
				<path class="st0" d="M113.9,58.2"/>
				<path class="st2" d="M107.8,50.7l6.4-4.9L107.8,50.7z"/>
				<path class="st2" d="M107.8,50.7l6.1,7.5L107.8,50.7z"/>
				<path class="st2" d="M110.6,27.3L97.1,45.5L110.6,27.3z"/>
				<line class="st1" x1="108.1" y1="77.7" x2="85.8" y2="61.7"/>
				<line class="st1" x1="113.7" y1="67.3" x2="97.1" y2="45.5"/>
				<line class="st1" x1="109.1" y1="29.3" x2="90.3" y2="33.5"/>
				<line class="st1" x1="94.5" y1="27.2" x2="85.1" y2="73.8"/>
				<line class="st1" x1="113.9" y1="85.3" x2="85.1" y2="73.8"/>
				<line class="st1" x1="113.9" y1="85.3" x2="89.5" y2="80.4"/>
				<line class="st1" x1="113.9" y1="85.3" x2="96" y2="84.7"/>
				<line class="st1" x1="98.9" y1="27.3" x2="85.8" y2="61.7"/>
				<line class="st1" x1="92.3" y1="66.4" x2="96" y2="84.7"/>
				<line class="st1" x1="90.3" y1="33.5" x2="89.5" y2="80.4"/>
			</g>
			<g>
				<line class="st1" x1="123.8" y1="85" x2="124.2" y2="27"/>
				<path class="st0" d="M123.8,85"/>
				<line class="st1" x1="123.8" y1="85" x2="143.6" y2="85"/>
				<path class="st0" d="M124.2,54.1"/>
				<path class="st2" d="M130.3,61.6l-6.4,4.9L130.3,61.6z"/>
				<path class="st2" d="M130.3,61.6l-6.1-7.5L130.3,61.6z"/>
				<path class="st2" d="M127.5,85L141,66.7L127.5,85z"/>
				<line class="st1" x1="129.6" y1="34.2" x2="152.3" y2="50.6"/>
				<line class="st1" x1="124" y1="44.5" x2="141" y2="66.7"/>
				<line class="st1" x1="128.9" y1="83" x2="147.8" y2="78.8"/>
				<line class="st1" x1="143.6" y1="85.1" x2="153" y2="38.5"/>
				<line class="st1" x1="124.2" y1="27" x2="153" y2="38.5"/>
				<line class="st1" x1="124.2" y1="27" x2="148.6" y2="31.9"/>
				<line class="st1" x1="124.2" y1="27" x2="142.1" y2="27.5"/>
				<line class="st1" x1="139.2" y1="85" x2="152.3" y2="50.6"/>
				<line class="st1" x1="145.7" y1="45.9" x2="142.1" y2="27.5"/>
				<line class="st1" x1="147.8" y1="78.8" x2="148.6" y2="31.9"/>
			</g>
			<path class="st2" d="M124,38.5l5.6-4.3L124,38.5z"/>
		</g>
	</g>
</g>
<g id="Layer_1" class="st3">
	<g id="Layer-1" class="st4">
		<path class="st5" d="M125.8,116.2V27.3"/>
		<path class="st6" d="M104.7,27.3v42v46.9"/>
		<g>
			<g>
				<path class="st7" d="M160.7,21.7c-1,0.2-2.1,0.4-3.1,0.5c-1.7,0.3-3.4,0.5-5,0.7c-2.4,0.3-4.9,0.5-7.3,0.5c-1.4,0-2.8,0.1-4.3,0
					c-0.5,0-1-0.1-1.5-0.1c-1.9-0.1-3.7-0.3-5.5-0.8c-0.5-0.1-1.1-0.3-1.6-0.5c-0.3-0.1-0.5-0.2-0.8-0.3c-0.1,0-0.1-0.1-0.2-0.1
					c-0.1,0-0.1,0-0.2,0.1c-0.1,0-0.1,0.1-0.2,0.1c-0.2,0.1-0.4,0.2-0.6,0.3c-0.4,0.3-0.9,0.6-1.4,0.9c-0.6,0.4-1.2,0.8-1.9,1.1
					c-0.7,0.3-1.4,0.6-2.1,0.6c-0.4,0-0.8,0-1.2-0.1c0,2.2,1.5,4.2,2.9,5.8c0.4,0.5,0.9,0.9,1.4,1.3c0.5,0.4,1,0.9,1.6,1.1
					c0.1,0,0.2,0.1,0.3,0.1c0.1,0,0.2,0.1,0.3,0.1c0.1,0,0.2,0,0.3,0c0.1,0,0.2,0,0.3,0c0.3,0,0.6-0.1,0.9-0.1
					c0.7-0.1,1.5-0.3,2.2-0.4c0.8-0.2,1.6-0.4,2.4-0.6c1.8-0.5,3.5-1,5.2-1.6c0.9-0.3,1.8-0.7,2.8-1c1.6-0.6,3.2-1.3,4.8-2
					c2.8-1.3,5.6-2.6,8.4-4.1C158.7,22.8,159.7,22.3,160.7,21.7z"/>
			</g>
			<g>
				<path class="st7" d="M69.6,21.7c1.1,0.6,2.1,1.2,3.2,1.8c2.7,1.4,5.4,2.7,8.2,3.9c1.6,0.7,3.2,1.4,4.8,2c0.9,0.4,1.8,0.7,2.8,1
					c1.7,0.6,3.4,1.2,5.2,1.6c0.8,0.2,1.6,0.4,2.4,0.6c0.8,0.2,1.7,0.3,2.5,0.5c0.3,0,0.6,0.1,0.9,0.1c0.1,0,0.2,0,0.3,0
					c0.1,0,0.2-0.1,0.3-0.1c0.1,0,0.2-0.1,0.3-0.1c0.1,0,0.2-0.1,0.3-0.1c0.3-0.2,0.5-0.4,0.8-0.6c0.3-0.2,0.5-0.4,0.8-0.6
					c0.6-0.5,1.1-1,1.6-1.6c1.3-1.5,2.5-3.3,2.5-5.3c-0.4,0.1-0.8,0.1-1.2,0.1c-0.8-0.1-1.6-0.4-2.3-0.7c-0.6-0.3-1.2-0.6-1.7-1
					c-0.5-0.3-1-0.7-1.5-1.1c-0.2-0.1-0.4-0.2-0.6-0.3c-0.1,0-0.1-0.1-0.2-0.1c-0.1,0-0.1,0-0.2,0.1c-0.1,0-0.1,0-0.2,0.1
					c-0.2,0.1-0.4,0.1-0.6,0.2c-0.6,0.2-1.2,0.4-1.7,0.5c-1.8,0.4-3.5,0.7-5.4,0.8c-0.5,0-1,0.1-1.5,0.1c-1.4,0-2.8,0-4.3,0
					c-2.4-0.1-4.9-0.3-7.3-0.5c-1.8-0.2-3.5-0.4-5.3-0.7C71.6,22.1,70.6,21.9,69.6,21.7z"/>
			</g>
		</g>
		<g>
			<g>
				<path class="st7" d="M130.4,110.1c-0.1,0-0.2,0.1-0.3,0.1c-0.1,0-0.2,0.1-0.3,0.1c-0.1,0-0.2,0.1-0.3,0.1
					c-0.3,0.2-0.5,0.4-0.8,0.6c-0.3,0.2-0.5,0.4-0.8,0.6c-0.6,0.5-1.1,1-1.6,1.6c-1.3,1.5-2.5,3.3-2.5,5.3c0.4-0.1,0.8-0.1,1.2-0.1
					c0.8,0.1,1.6,0.4,2.3,0.7c0.6,0.3,1.2,0.6,1.7,1c0.5,0.3,1,0.7,1.5,1.1c0.2,0.1,0.4,0.2,0.6,0.3c0.1,0,0.1,0.1,0.2,0.1
					c0.1,0,0.1,0,0.2-0.1c0.1,0,0.1,0,0.2-0.1c0.2-0.1,0.4-0.1,0.6-0.2c0.6-0.2,1.2-0.4,1.7-0.5c1.8-0.4,3.6-0.6,5.4-0.8
					c0.5,0,1-0.1,1.5-0.1c1.4,0,2.8,0,4.3,0c2.4,0.1,4.9,0.3,7.3,0.5c1.8,0.2,3.5,0.4,5.3,0.7c1,0.1,1.9,0.3,2.9,0.5
					c-1.1-0.6-2.1-1.2-3.2-1.8c-2.7-1.4-5.4-2.7-8.2-4c-1.6-0.7-3.2-1.4-4.8-2c-0.9-0.4-1.8-0.7-2.8-1c-1.7-0.6-3.5-1.2-5.2-1.6
					c-0.8-0.2-1.6-0.4-2.4-0.6c-0.8-0.2-1.7-0.3-2.5-0.5c-0.3,0-0.6-0.1-0.9-0.1C130.6,110.1,130.5,110.1,130.4,110.1z"/>
			</g>
			<g>
				<path class="st7" d="M100.1,110.1c-0.1,0-0.2,0-0.3,0c-0.1,0-0.2,0-0.3,0c-0.3,0-0.6,0.1-0.9,0.1c-0.7,0.1-1.5,0.3-2.2,0.4
					c-0.8,0.2-1.6,0.4-2.4,0.6c-1.8,0.5-3.5,1-5.2,1.6c-0.9,0.3-1.8,0.7-2.8,1c-1.6,0.6-3.2,1.3-4.8,2c-2.8,1.3-5.6,2.6-8.4,4.1
					c-1,0.5-2,1.1-3,1.6c1-0.2,2.1-0.4,3.1-0.5c1.7-0.3,3.4-0.5,5-0.7c2.4-0.3,4.9-0.5,7.3-0.5c1.4,0,2.8-0.1,4.3,0
					c0.5,0,1,0.1,1.5,0.1c1.9,0.1,3.7,0.3,5.5,0.8c0.5,0.1,1.1,0.3,1.6,0.5c0.3,0.1,0.5,0.2,0.8,0.3c0.1,0,0.1,0.1,0.2,0.1
					c0.1,0,0.1,0,0.2-0.1c0.1,0,0.1-0.1,0.2-0.1c0.2-0.1,0.4-0.2,0.6-0.3c0.4-0.3,0.9-0.6,1.3-0.9c0.6-0.4,1.2-0.8,1.9-1.1
					c0.7-0.3,1.4-0.6,2.1-0.6c0.4,0,0.8,0,1.2,0.1c0-2.2-1.5-4.2-2.9-5.8c-0.4-0.5-0.9-0.9-1.4-1.3c-0.5-0.4-1-0.8-1.6-1.1
					c-0.1,0-0.2-0.1-0.3-0.1C100.3,110.2,100.2,110.1,100.1,110.1z"/>
			</g>
		</g>
	</g>
</g>
</svg>
