<?xml version="1.0" encoding="utf-8"?>
<!-- Generator: Adobe Illustrator 25.2.1, SVG Export Plug-In . SVG Version: 6.00 Build 0)  -->
<svg version="1.1" xmlns="http://www.w3.org/2000/svg" xmlns:xlink="http://www.w3.org/1999/xlink" x="0px" y="0px"
	 viewBox="0 0 232.4 141.7" style="enable-background:new 0 0 232.4 141.7;" xml:space="preserve">
<style type="text/css">
	.st0{fill:none;stroke:#FFFFFF;stroke-width:11.0728;stroke-linecap:square;stroke-miterlimit:1.3841;}
	.st1{fill:#FFFFFF;stroke:#FFFFFF;stroke-width:11.0728;stroke-linecap:square;stroke-miterlimit:1.3841;}
	.st2{fill:#FFFFFF;}
</style>
<g id="Layer_2">
	<rect x="2" y="-42.3" width="233" height="184"/>
</g>
<g id="Layer_1">
	<g id="Layer-1">
		<path class="st0" d="M125.8,116.2V27.3"/>
		<path class="st1" d="M104.7,27.3v42v46.9"/>
		<g>
			<g>
				<path class="st2" d="M160.7,21.7c-1,0.2-2.1,0.4-3.1,0.5c-1.7,0.3-3.4,0.5-5,0.7c-2.4,0.3-4.9,0.5-7.3,0.5c-1.4,0-2.8,0.1-4.3,0
					c-0.5,0-1-0.1-1.5-0.1c-1.9-0.1-3.7-0.3-5.5-0.8c-0.5-0.1-1.1-0.3-1.6-0.5c-0.3-0.1-0.5-0.2-0.8-0.3c-0.1,0-0.1-0.1-0.2-0.1
					c-0.1,0-0.1,0-0.2,0.1c-0.1,0-0.1,0.1-0.2,0.1c-0.2,0.1-0.4,0.2-0.6,0.3c-0.4,0.3-0.9,0.6-1.4,0.9c-0.6,0.4-1.2,0.8-1.9,1.1
					c-0.7,0.3-1.4,0.6-2.1,0.6c-0.4,0-0.8,0-1.2-0.1c0,2.2,1.5,4.2,2.9,5.8c0.4,0.5,0.9,0.9,1.4,1.3c0.5,0.4,1,0.9,1.6,1.1
					c0.1,0,0.2,0.1,0.3,0.1c0.1,0,0.2,0.1,0.3,0.1c0.1,0,0.2,0,0.3,0c0.1,0,0.2,0,0.3,0c0.3,0,0.6-0.1,0.9-0.1
					c0.7-0.1,1.5-0.3,2.2-0.4c0.8-0.2,1.6-0.4,2.4-0.6c1.8-0.5,3.5-1,5.2-1.6c0.9-0.3,1.8-0.7,2.8-1c1.6-0.6,3.2-1.3,4.8-2
					c2.8-1.3,5.6-2.6,8.4-4.1C158.7,22.8,159.7,22.3,160.7,21.7z"/>
			</g>
			<g>
				<path class="st2" d="M69.6,21.7c1.1,0.6,2.1,1.2,3.2,1.8c2.7,1.4,5.4,2.7,8.2,3.9c1.6,0.7,3.2,1.4,4.8,2c0.9,0.4,1.8,0.7,2.8,1
					c1.7,0.6,3.4,1.2,5.2,1.6c0.8,0.2,1.6,0.4,2.4,0.6c0.8,0.2,1.7,0.3,2.5,0.5c0.3,0,0.6,0.1,0.9,0.1c0.1,0,0.2,0,0.3,0
					c0.1,0,0.2-0.1,0.3-0.1c0.1,0,0.2-0.1,0.3-0.1c0.1,0,0.2-0.1,0.3-0.1c0.3-0.2,0.5-0.4,0.8-0.6c0.3-0.2,0.5-0.4,0.8-0.6
					c0.6-0.5,1.1-1,1.6-1.6c1.3-1.5,2.5-3.3,2.5-5.3c-0.4,0.1-0.8,0.1-1.2,0.1c-0.8-0.1-1.6-0.4-2.3-0.7c-0.6-0.3-1.2-0.6-1.7-1
					c-0.5-0.3-1-0.7-1.5-1.1c-0.2-0.1-0.4-0.2-0.6-0.3c-0.1,0-0.1-0.1-0.2-0.1c-0.1,0-0.1,0-0.2,0.1c-0.1,0-0.1,0-0.2,0.1
					c-0.2,0.1-0.4,0.1-0.6,0.2c-0.6,0.2-1.2,0.4-1.7,0.5c-1.8,0.4-3.5,0.7-5.4,0.8c-0.5,0-1,0.1-1.5,0.1c-1.4,0-2.8,0-4.3,0
					c-2.4-0.1-4.9-0.3-7.3-0.5c-1.8-0.2-3.5-0.4-5.3-0.7C71.6,22.1,70.6,21.9,69.6,21.7z"/>
			</g>
		</g>
		<g>
			<g>
				<path class="st2" d="M130.4,110.1c-0.1,0-0.2,0.1-0.3,0.1c-0.1,0-0.2,0.1-0.3,0.1c-0.1,0-0.2,0.1-0.3,0.1
					c-0.3,0.2-0.5,0.4-0.8,0.6c-0.3,0.2-0.5,0.4-0.8,0.6c-0.6,0.5-1.1,1-1.6,1.6c-1.3,1.5-2.5,3.3-2.5,5.3c0.4-0.1,0.8-0.1,1.2-0.1
					c0.8,0.1,1.6,0.4,2.3,0.7c0.6,0.3,1.2,0.6,1.7,1c0.5,0.3,1,0.7,1.5,1.1c0.2,0.1,0.4,0.2,0.6,0.3c0.1,0,0.1,0.1,0.2,0.1
					c0.1,0,0.1,0,0.2-0.1c0.1,0,0.1,0,0.2-0.1c0.2-0.1,0.4-0.1,0.6-0.2c0.6-0.2,1.2-0.4,1.7-0.5c1.8-0.4,3.6-0.6,5.4-0.8
					c0.5,0,1-0.1,1.5-0.1c1.4,0,2.8,0,4.3,0c2.4,0.1,4.9,0.3,7.3,0.5c1.8,0.2,3.5,0.4,5.3,0.7c1,0.1,1.9,0.3,2.9,0.5
					c-1.1-0.6-2.1-1.2-3.2-1.8c-2.7-1.4-5.4-2.7-8.2-4c-1.6-0.7-3.2-1.4-4.8-2c-0.9-0.4-1.8-0.7-2.8-1c-1.7-0.6-3.5-1.2-5.2-1.6
					c-0.8-0.2-1.6-0.4-2.4-0.6c-0.8-0.2-1.7-0.3-2.5-0.5c-0.3,0-0.6-0.1-0.9-0.1C130.6,110.1,130.5,110.1,130.4,110.1z"/>
			</g>
			<g>
				<path class="st2" d="M100.1,110.1c-0.1,0-0.2,0-0.3,0c-0.1,0-0.2,0-0.3,0c-0.3,0-0.6,0.1-0.9,0.1c-0.7,0.1-1.5,0.3-2.2,0.4
					c-0.8,0.2-1.6,0.4-2.4,0.6c-1.8,0.5-3.5,1-5.2,1.6c-0.9,0.3-1.8,0.7-2.8,1c-1.6,0.6-3.2,1.3-4.8,2c-2.8,1.3-5.6,2.6-8.4,4.1
					c-1,0.5-2,1.1-3,1.6c1-0.2,2.1-0.4,3.1-0.5c1.7-0.3,3.4-0.5,5-0.7c2.4-0.3,4.9-0.5,7.3-0.5c1.4,0,2.8-0.1,4.3,0
					c0.5,0,1,0.1,1.5,0.1c1.9,0.1,3.7,0.3,5.5,0.8c0.5,0.1,1.1,0.3,1.6,0.5c0.3,0.1,0.5,0.2,0.8,0.3c0.1,0,0.1,0.1,0.2,0.1
					c0.1,0,0.1,0,0.2-0.1c0.1,0,0.1-0.1,0.2-0.1c0.2-0.1,0.4-0.2,0.6-0.3c0.4-0.3,0.9-0.6,1.3-0.9c0.6-0.4,1.2-0.8,1.9-1.1
					c0.7-0.3,1.4-0.6,2.1-0.6c0.4,0,0.8,0,1.2,0.1c0-2.2-1.5-4.2-2.9-5.8c-0.4-0.5-0.9-0.9-1.4-1.3c-0.5-0.4-1-0.8-1.6-1.1
					c-0.1,0-0.2-0.1-0.3-0.1C100.3,110.2,100.2,110.1,100.1,110.1z"/>
			</g>
		</g>
	</g>
</g>
</svg>
